<svg xmlns="http://www.w3.org/2000/svg" viewBox="0 0 1601.8 1701.26"><defs><style>.cls-1{fill:#1db954;}</style></defs><g id="Capa_2" data-name="Capa 2"><g id="Capa_2-2" data-name="Capa 2"><path d="M1535,746.06c-175.88,438.41,234.59,754.65-423.51,914.75S44.79,1494.35,2.37,884.38,494-50.2,1017,6.33,1710.86,307.66,1535,746.06Z"/><path class="cls-1" d="M1447.06,274.91c-160-217.9-489.22-35.55-590.69,176.75s-12.5,547.84,210.19,541.07S1104,742.85,1246.67,680.05,1607,492.82,1447.06,274.91"/><path class="cls-1" d="M1163.11,1527.46c21.54-3,42.22,49.59,26,65.31s-17.78-5.24-45.89-1.67-23-53.66-11.23-64.14S1141.58,1530.43,1163.11,1527.46Z"/><path class="cls-1" d="M961.3,1374.19c173-6.24,172.47-333.45,42-357.44s-660.63-90.57-616.4,203.55c0,291.14-17.64,382,221.5,399.09,24.67-11.12,15.06-29.37,11.87-46.53-1.6-8.58-2.65-16.54-5-25.43a1.26,1.26,0,0,0-.14-.31l-1.57-4.73c-2.53-66.5-52.79-91.16-74.47-156.42-31-93.33,206,122.26,220.21,185.09.48,2.11,3.77,6.6,4,10.2.14,2.81.3,6-1.51,8.84-9.41,14.57-22.79,28.94-3.46,32.16,33.29-.48,69.55-1.46,109-2.82C1376.36,1601.86,824.37,1379.12,961.3,1374.19ZM816.5,1264.06c-56.75-30.23-117.17-78.59-155-114.66s82.13-64.42,169.28-46.88S976.41,1185,970.65,1226.64,873.24,1294.28,816.5,1264.06Z"/><path class="cls-1" d="M524.15,155.11c-197.48,27.33-89.65,287.37-83.06,468.61s-469.76-186.5-288.6,205.67S748,807.29,768.59,641.71s-47-513.92-244.44-486.6"/></g><g id="Capa_1-2" data-name="Capa 1"><path d="M1173.5,347.94c87.42-42.13,189.8,70,128.44,138.89S1227.23,500.4,1113,554.55,1000.73,443,1045.56,395.61,1086.08,390.07,1173.5,347.94Z"/></g></g></svg>